<mxfile host="app.diagrams.net" modified="2024-04-09T09:26:37.411Z" agent="Mozilla/5.0 (X11; Linux x86_64) AppleWebKit/537.36 (KHTML, like Gecko) Chrome/122.0.0.0 Safari/537.36 OPR/108.0.0.0" etag="pt4cFjPaYIdLzaTpyxYq" version="24.2.3" type="github">
  <diagram name="Seite-1" id="PtIodKv27Jv6Ue0VSmV6">
    <mxGraphModel dx="1517" dy="1966" grid="1" gridSize="10" guides="1" tooltips="1" connect="1" arrows="1" fold="1" page="1" pageScale="1" pageWidth="827" pageHeight="1169" math="0" shadow="0">
      <root>
        <mxCell id="0" />
        <mxCell id="1" parent="0" />
        <mxCell id="8wyr7dBWzDa6RUllLwpJ-13" style="edgeStyle=orthogonalEdgeStyle;rounded=0;orthogonalLoop=1;jettySize=auto;html=1;" edge="1" parent="1" source="8wyr7dBWzDa6RUllLwpJ-4" target="8wyr7dBWzDa6RUllLwpJ-5">
          <mxGeometry relative="1" as="geometry" />
        </mxCell>
        <mxCell id="8wyr7dBWzDa6RUllLwpJ-15" style="edgeStyle=orthogonalEdgeStyle;rounded=0;orthogonalLoop=1;jettySize=auto;html=1;entryX=0.5;entryY=1;entryDx=0;entryDy=0;" edge="1" parent="1" source="8wyr7dBWzDa6RUllLwpJ-4" target="8wyr7dBWzDa6RUllLwpJ-14">
          <mxGeometry relative="1" as="geometry" />
        </mxCell>
        <mxCell id="8wyr7dBWzDa6RUllLwpJ-23" style="edgeStyle=orthogonalEdgeStyle;rounded=0;orthogonalLoop=1;jettySize=auto;html=1;" edge="1" parent="1" source="8wyr7dBWzDa6RUllLwpJ-4" target="8wyr7dBWzDa6RUllLwpJ-22">
          <mxGeometry relative="1" as="geometry" />
        </mxCell>
        <mxCell id="8wyr7dBWzDa6RUllLwpJ-4" value="&lt;font style=&quot;font-size: 19px;&quot;&gt;Persistente Daten:&lt;br&gt;Datenmanagement in Alltag und Technick&lt;/font&gt;" style="rounded=0;whiteSpace=wrap;html=1;" vertex="1" parent="1">
          <mxGeometry x="400" y="320" width="160" height="100" as="geometry" />
        </mxCell>
        <mxCell id="8wyr7dBWzDa6RUllLwpJ-8" style="edgeStyle=orthogonalEdgeStyle;rounded=0;orthogonalLoop=1;jettySize=auto;html=1;" edge="1" parent="1" source="8wyr7dBWzDa6RUllLwpJ-5" target="8wyr7dBWzDa6RUllLwpJ-6">
          <mxGeometry relative="1" as="geometry" />
        </mxCell>
        <mxCell id="8wyr7dBWzDa6RUllLwpJ-10" style="edgeStyle=orthogonalEdgeStyle;rounded=0;orthogonalLoop=1;jettySize=auto;html=1;" edge="1" parent="1" source="8wyr7dBWzDa6RUllLwpJ-5" target="8wyr7dBWzDa6RUllLwpJ-9">
          <mxGeometry relative="1" as="geometry" />
        </mxCell>
        <mxCell id="8wyr7dBWzDa6RUllLwpJ-12" style="edgeStyle=orthogonalEdgeStyle;rounded=0;orthogonalLoop=1;jettySize=auto;html=1;entryX=0.5;entryY=0;entryDx=0;entryDy=0;" edge="1" parent="1" source="8wyr7dBWzDa6RUllLwpJ-5" target="8wyr7dBWzDa6RUllLwpJ-11">
          <mxGeometry relative="1" as="geometry" />
        </mxCell>
        <mxCell id="8wyr7dBWzDa6RUllLwpJ-5" value="Beispiele" style="rounded=0;whiteSpace=wrap;html=1;" vertex="1" parent="1">
          <mxGeometry x="180" y="340" width="120" height="60" as="geometry" />
        </mxCell>
        <mxCell id="8wyr7dBWzDa6RUllLwpJ-6" value="Fotos auf dem Smartphone" style="rounded=0;whiteSpace=wrap;html=1;" vertex="1" parent="1">
          <mxGeometry x="180" y="230" width="120" height="60" as="geometry" />
        </mxCell>
        <mxCell id="8wyr7dBWzDa6RUllLwpJ-9" value="Dokumente auf Google Drive&lt;span style=&quot;color: rgba(0, 0, 0, 0); font-family: monospace; font-size: 0px; text-align: start; text-wrap: nowrap;&quot;&gt;%3CmxGraphModel%3E%3Croot%3E%3CmxCell%20id%3D%220%22%2F%3E%3CmxCell%20id%3D%221%22%20parent%3D%220%22%2F%3E%3CmxCell%20id%3D%222%22%20value%3D%22Beispiele%22%20style%3D%22rounded%3D0%3BwhiteSpace%3Dwrap%3Bhtml%3D1%3B%22%20vertex%3D%221%22%20parent%3D%221%22%3E%3CmxGeometry%20x%3D%22180%22%20y%3D%22340%22%20width%3D%22120%22%20height%3D%2260%22%20as%3D%22geometry%22%2F%3E%3C%2FmxCell%3E%3C%2Froot%3E%3C%2FmxGraphModel%3E&lt;/span&gt;" style="rounded=0;whiteSpace=wrap;html=1;" vertex="1" parent="1">
          <mxGeometry y="340" width="120" height="60" as="geometry" />
        </mxCell>
        <mxCell id="8wyr7dBWzDa6RUllLwpJ-11" value="Kontaktdaten in sozialen Medien" style="rounded=0;whiteSpace=wrap;html=1;" vertex="1" parent="1">
          <mxGeometry x="180" y="450" width="120" height="60" as="geometry" />
        </mxCell>
        <mxCell id="8wyr7dBWzDa6RUllLwpJ-17" style="edgeStyle=orthogonalEdgeStyle;rounded=0;orthogonalLoop=1;jettySize=auto;html=1;" edge="1" parent="1" source="8wyr7dBWzDa6RUllLwpJ-14" target="8wyr7dBWzDa6RUllLwpJ-16">
          <mxGeometry relative="1" as="geometry" />
        </mxCell>
        <mxCell id="8wyr7dBWzDa6RUllLwpJ-19" style="edgeStyle=orthogonalEdgeStyle;rounded=0;orthogonalLoop=1;jettySize=auto;html=1;entryX=0;entryY=0.5;entryDx=0;entryDy=0;" edge="1" parent="1" source="8wyr7dBWzDa6RUllLwpJ-14" target="8wyr7dBWzDa6RUllLwpJ-18">
          <mxGeometry relative="1" as="geometry" />
        </mxCell>
        <mxCell id="8wyr7dBWzDa6RUllLwpJ-21" style="edgeStyle=orthogonalEdgeStyle;rounded=0;orthogonalLoop=1;jettySize=auto;html=1;" edge="1" parent="1" source="8wyr7dBWzDa6RUllLwpJ-14" target="8wyr7dBWzDa6RUllLwpJ-20">
          <mxGeometry relative="1" as="geometry" />
        </mxCell>
        <mxCell id="8wyr7dBWzDa6RUllLwpJ-14" value="Ablage" style="rounded=0;whiteSpace=wrap;html=1;" vertex="1" parent="1">
          <mxGeometry x="420" y="30" width="120" height="60" as="geometry" />
        </mxCell>
        <mxCell id="8wyr7dBWzDa6RUllLwpJ-16" value="Dateisysteme" style="rounded=0;whiteSpace=wrap;html=1;" vertex="1" parent="1">
          <mxGeometry x="160" y="30" width="120" height="60" as="geometry" />
        </mxCell>
        <mxCell id="8wyr7dBWzDa6RUllLwpJ-18" value="Datenbanken" style="rounded=0;whiteSpace=wrap;html=1;" vertex="1" parent="1">
          <mxGeometry x="600" y="30" width="120" height="60" as="geometry" />
        </mxCell>
        <mxCell id="8wyr7dBWzDa6RUllLwpJ-20" value="Cloud-Server" style="rounded=0;whiteSpace=wrap;html=1;" vertex="1" parent="1">
          <mxGeometry x="420" y="-100" width="120" height="60" as="geometry" />
        </mxCell>
        <mxCell id="8wyr7dBWzDa6RUllLwpJ-25" style="edgeStyle=orthogonalEdgeStyle;rounded=0;orthogonalLoop=1;jettySize=auto;html=1;entryX=0.5;entryY=1;entryDx=0;entryDy=0;" edge="1" parent="1" source="8wyr7dBWzDa6RUllLwpJ-22" target="8wyr7dBWzDa6RUllLwpJ-24">
          <mxGeometry relative="1" as="geometry" />
        </mxCell>
        <mxCell id="8wyr7dBWzDa6RUllLwpJ-27" style="edgeStyle=orthogonalEdgeStyle;rounded=0;orthogonalLoop=1;jettySize=auto;html=1;" edge="1" parent="1" source="8wyr7dBWzDa6RUllLwpJ-22" target="8wyr7dBWzDa6RUllLwpJ-26">
          <mxGeometry relative="1" as="geometry" />
        </mxCell>
        <mxCell id="8wyr7dBWzDa6RUllLwpJ-29" style="edgeStyle=orthogonalEdgeStyle;rounded=0;orthogonalLoop=1;jettySize=auto;html=1;" edge="1" parent="1" source="8wyr7dBWzDa6RUllLwpJ-22" target="8wyr7dBWzDa6RUllLwpJ-28">
          <mxGeometry relative="1" as="geometry" />
        </mxCell>
        <mxCell id="8wyr7dBWzDa6RUllLwpJ-22" value="Herausforderungen" style="rounded=0;whiteSpace=wrap;html=1;" vertex="1" parent="1">
          <mxGeometry x="670" y="340" width="120" height="60" as="geometry" />
        </mxCell>
        <mxCell id="8wyr7dBWzDa6RUllLwpJ-24" value="Synchronisation" style="rounded=0;whiteSpace=wrap;html=1;" vertex="1" parent="1">
          <mxGeometry x="670" y="220" width="120" height="60" as="geometry" />
        </mxCell>
        <mxCell id="8wyr7dBWzDa6RUllLwpJ-26" value="Datenschutz" style="rounded=0;whiteSpace=wrap;html=1;" vertex="1" parent="1">
          <mxGeometry x="670" y="460" width="120" height="60" as="geometry" />
        </mxCell>
        <mxCell id="8wyr7dBWzDa6RUllLwpJ-28" value="Backup und Wiederherstellung" style="rounded=0;whiteSpace=wrap;html=1;" vertex="1" parent="1">
          <mxGeometry x="860" y="340" width="120" height="60" as="geometry" />
        </mxCell>
        <mxCell id="zJiBQZfhp-_T0qKfA_-h-1" style="edgeStyle=orthogonalEdgeStyle;rounded=0;orthogonalLoop=1;jettySize=auto;html=1;" edge="1" parent="1" source="zJiBQZfhp-_T0qKfA_-h-4" target="zJiBQZfhp-_T0qKfA_-h-8">
          <mxGeometry relative="1" as="geometry" />
        </mxCell>
        <mxCell id="zJiBQZfhp-_T0qKfA_-h-2" style="edgeStyle=orthogonalEdgeStyle;rounded=0;orthogonalLoop=1;jettySize=auto;html=1;entryX=0.5;entryY=1;entryDx=0;entryDy=0;" edge="1" parent="1" source="zJiBQZfhp-_T0qKfA_-h-4" target="zJiBQZfhp-_T0qKfA_-h-15">
          <mxGeometry relative="1" as="geometry" />
        </mxCell>
        <mxCell id="zJiBQZfhp-_T0qKfA_-h-3" style="edgeStyle=orthogonalEdgeStyle;rounded=0;orthogonalLoop=1;jettySize=auto;html=1;" edge="1" parent="1" source="zJiBQZfhp-_T0qKfA_-h-4" target="zJiBQZfhp-_T0qKfA_-h-22">
          <mxGeometry relative="1" as="geometry" />
        </mxCell>
        <mxCell id="zJiBQZfhp-_T0qKfA_-h-4" value="&lt;font style=&quot;font-size: 19px;&quot;&gt;Transiente Date:&lt;br&gt;TemporÃ¤r vorhandene Daten&lt;/font&gt;" style="rounded=0;whiteSpace=wrap;html=1;" vertex="1" parent="1">
          <mxGeometry x="1560" y="420" width="160" height="100" as="geometry" />
        </mxCell>
        <mxCell id="zJiBQZfhp-_T0qKfA_-h-5" style="edgeStyle=orthogonalEdgeStyle;rounded=0;orthogonalLoop=1;jettySize=auto;html=1;" edge="1" parent="1" source="zJiBQZfhp-_T0qKfA_-h-8" target="zJiBQZfhp-_T0qKfA_-h-9">
          <mxGeometry relative="1" as="geometry" />
        </mxCell>
        <mxCell id="zJiBQZfhp-_T0qKfA_-h-6" style="edgeStyle=orthogonalEdgeStyle;rounded=0;orthogonalLoop=1;jettySize=auto;html=1;" edge="1" parent="1" source="zJiBQZfhp-_T0qKfA_-h-8" target="zJiBQZfhp-_T0qKfA_-h-10">
          <mxGeometry relative="1" as="geometry" />
        </mxCell>
        <mxCell id="zJiBQZfhp-_T0qKfA_-h-7" style="edgeStyle=orthogonalEdgeStyle;rounded=0;orthogonalLoop=1;jettySize=auto;html=1;entryX=0.5;entryY=0;entryDx=0;entryDy=0;" edge="1" parent="1" source="zJiBQZfhp-_T0qKfA_-h-8" target="zJiBQZfhp-_T0qKfA_-h-11">
          <mxGeometry relative="1" as="geometry" />
        </mxCell>
        <mxCell id="zJiBQZfhp-_T0qKfA_-h-8" value="Beispiele" style="rounded=0;whiteSpace=wrap;html=1;" vertex="1" parent="1">
          <mxGeometry x="1340" y="440" width="120" height="60" as="geometry" />
        </mxCell>
        <mxCell id="zJiBQZfhp-_T0qKfA_-h-9" value="Einkaufswagen in Online-Shops" style="rounded=0;whiteSpace=wrap;html=1;" vertex="1" parent="1">
          <mxGeometry x="1340" y="330" width="120" height="60" as="geometry" />
        </mxCell>
        <mxCell id="zJiBQZfhp-_T0qKfA_-h-10" value="Sitzungsdaten in Apps" style="rounded=0;whiteSpace=wrap;html=1;" vertex="1" parent="1">
          <mxGeometry x="1160" y="440" width="120" height="60" as="geometry" />
        </mxCell>
        <mxCell id="zJiBQZfhp-_T0qKfA_-h-11" value="Zwischenspeicherungen in Spielen" style="rounded=0;whiteSpace=wrap;html=1;" vertex="1" parent="1">
          <mxGeometry x="1340" y="550" width="120" height="60" as="geometry" />
        </mxCell>
        <mxCell id="zJiBQZfhp-_T0qKfA_-h-12" style="edgeStyle=orthogonalEdgeStyle;rounded=0;orthogonalLoop=1;jettySize=auto;html=1;" edge="1" parent="1" source="zJiBQZfhp-_T0qKfA_-h-15" target="zJiBQZfhp-_T0qKfA_-h-16">
          <mxGeometry relative="1" as="geometry" />
        </mxCell>
        <mxCell id="zJiBQZfhp-_T0qKfA_-h-14" style="edgeStyle=orthogonalEdgeStyle;rounded=0;orthogonalLoop=1;jettySize=auto;html=1;" edge="1" parent="1" source="zJiBQZfhp-_T0qKfA_-h-15" target="zJiBQZfhp-_T0qKfA_-h-18">
          <mxGeometry relative="1" as="geometry" />
        </mxCell>
        <mxCell id="zJiBQZfhp-_T0qKfA_-h-15" value="Ablage" style="rounded=0;whiteSpace=wrap;html=1;" vertex="1" parent="1">
          <mxGeometry x="1580" y="130" width="120" height="60" as="geometry" />
        </mxCell>
        <mxCell id="zJiBQZfhp-_T0qKfA_-h-16" value="Arbeitsspeicher RAM" style="rounded=0;whiteSpace=wrap;html=1;" vertex="1" parent="1">
          <mxGeometry x="1390" y="130" width="120" height="60" as="geometry" />
        </mxCell>
        <mxCell id="zJiBQZfhp-_T0qKfA_-h-18" value="TemporÃ¤re Speicherbereiche&lt;br&gt;(Cookies" style="rounded=0;whiteSpace=wrap;html=1;" vertex="1" parent="1">
          <mxGeometry x="1580" width="120" height="60" as="geometry" />
        </mxCell>
        <mxCell id="zJiBQZfhp-_T0qKfA_-h-19" style="edgeStyle=orthogonalEdgeStyle;rounded=0;orthogonalLoop=1;jettySize=auto;html=1;entryX=0.5;entryY=1;entryDx=0;entryDy=0;" edge="1" parent="1" source="zJiBQZfhp-_T0qKfA_-h-22" target="zJiBQZfhp-_T0qKfA_-h-23">
          <mxGeometry relative="1" as="geometry" />
        </mxCell>
        <mxCell id="zJiBQZfhp-_T0qKfA_-h-20" style="edgeStyle=orthogonalEdgeStyle;rounded=0;orthogonalLoop=1;jettySize=auto;html=1;" edge="1" parent="1" source="zJiBQZfhp-_T0qKfA_-h-22" target="zJiBQZfhp-_T0qKfA_-h-24">
          <mxGeometry relative="1" as="geometry" />
        </mxCell>
        <mxCell id="zJiBQZfhp-_T0qKfA_-h-21" style="edgeStyle=orthogonalEdgeStyle;rounded=0;orthogonalLoop=1;jettySize=auto;html=1;" edge="1" parent="1" source="zJiBQZfhp-_T0qKfA_-h-22" target="zJiBQZfhp-_T0qKfA_-h-25">
          <mxGeometry relative="1" as="geometry" />
        </mxCell>
        <mxCell id="zJiBQZfhp-_T0qKfA_-h-22" value="Herausforderungen" style="rounded=0;whiteSpace=wrap;html=1;" vertex="1" parent="1">
          <mxGeometry x="1830" y="440" width="120" height="60" as="geometry" />
        </mxCell>
        <mxCell id="zJiBQZfhp-_T0qKfA_-h-23" value="Session-Management" style="rounded=0;whiteSpace=wrap;html=1;" vertex="1" parent="1">
          <mxGeometry x="1830" y="320" width="120" height="60" as="geometry" />
        </mxCell>
        <mxCell id="zJiBQZfhp-_T0qKfA_-h-24" value="DatenintigritÃ¤t" style="rounded=0;whiteSpace=wrap;html=1;" vertex="1" parent="1">
          <mxGeometry x="1830" y="560" width="120" height="60" as="geometry" />
        </mxCell>
        <mxCell id="zJiBQZfhp-_T0qKfA_-h-25" value="Leistungsoptimierung" style="rounded=0;whiteSpace=wrap;html=1;" vertex="1" parent="1">
          <mxGeometry x="2020" y="440" width="120" height="60" as="geometry" />
        </mxCell>
      </root>
    </mxGraphModel>
  </diagram>
</mxfile>
